<svg xmlns="http://www.w3.org/2000/svg" xmlns:xlink="http://www.w3.org/1999/xlink" xmlns:lucid="lucid" width="760" height="380"><g transform="translate(-420 -120)" lucid:page-tab-id="0_0"><path d="M700 363.33a6 6 0 0 1 6-6h29.33a6 6 0 0 1 6 6v28a6 6 0 0 1-6 6H706a6 6 0 0 1-6-6z" stroke="#4881b3" stroke-width="3" fill-opacity="0"/><use xlink:href="#a" transform="matrix(1,0,0,1,708,365.3333333333333) translate(3.0500000000000007 15.6)"/><path d="M880 426a6 6 0 0 1 6-6h148a6 6 0 0 1 6 6v28a6 6 0 0 1-6 6H886a6 6 0 0 1-6-6z" stroke="#4881b3" stroke-width="3" fill-opacity="0"/><use xlink:href="#b" transform="matrix(1,0,0,1,888,428) translate(1.0999999999999943 15.6)"/><use xlink:href="#c" transform="matrix(1,0,0,1,888,428) translate(29.999999999999993 15.6)"/><use xlink:href="#d" transform="matrix(1,0,0,1,888,428) translate(83.9 15.6)"/><use xlink:href="#e" transform="matrix(1,0,0,1,888,428) translate(118.9 15.6)"/><path d="M990 238c-16.57 0-30-12.54-30-28 0-12.37 8.12-22.8 20.73-26.63C980 147 1030 140 1050 154c10-21 60-14 60 7 30-7 60 21 40 56 20 28 0 63-40 49-10 18.2-50 18.2-60 0-20 14-60 7-60-28z" stroke="#4881b3" stroke-width="3" fill="#f5fbff"/><use xlink:href="#f" transform="matrix(1,0,0,1,965,145) translate(44.574999999999996 68.60000000000001)"/><path d="M670 238c-16.57 0-30-12.54-30-28 0-12.37 8.12-22.8 20.73-26.63C660 147 710 140 730 154c10-21 60-14 60 7 30-7 60 21 40 56 20 28 0 63-40 49-10 18.2-50 18.2-60 0-20 14-60 7-60-28z" stroke="#4881b3" stroke-width="3" fill="#f5fbff"/><use xlink:href="#g" transform="matrix(1,0,0,1,645,145) translate(25.125 68.60000000000001)"/><use xlink:href="#h" transform="matrix(1,0,0,1,645,145) translate(86.025 68.60000000000001)"/><path d="M440 326a6 6 0 0 1 6-6h188a6 6 0 0 1 6 6v28a6 6 0 0 1-6 6H446a6 6 0 0 1-6-6z" stroke="#4881b3" stroke-width="3" fill="#f5fbff"/><use xlink:href="#i" transform="matrix(1,0,0,1,445,325) translate(29.125 18.6)"/><path d="M440 386a6 6 0 0 1 6-6h188a6 6 0 0 1 6 6v28a6 6 0 0 1-6 6H446a6 6 0 0 1-6-6z" stroke="#4881b3" stroke-width="3" fill="#f5fbff"/><use xlink:href="#j" transform="matrix(1,0,0,1,445,385) translate(20.14999999999999 18.6)"/><path d="M440 446a6 6 0 0 1 6-6h188a6 6 0 0 1 6 6v28a6 6 0 0 1-6 6H446a6 6 0 0 1-6-6z" stroke="#4881b3" stroke-width="3" fill="#f5fbff"/><use xlink:href="#k" transform="matrix(1,0,0,1,445,445) translate(44.074999999999996 18.6)"/><path d="M642.5 340h40.57a6 6 0 0 0 6-6v-44.9" stroke="#224c72" stroke-width="2" fill="none"/><path d="M642.53 341h-1.03v-2h1.03z" stroke="#224c72" stroke-width=".05" fill="#224c72"/><path d="M689.07 273.84l4.64 14.27h-9.26z" stroke="#224c72" stroke-width="2" fill="#224c72"/><path d="M642.5 400h40.57a6 6 0 0 0 6-6V289.1" stroke="#224c72" stroke-width="2" fill="none"/><path d="M642.53 401h-1.03v-2h1.03z" stroke="#224c72" stroke-width=".05" fill="#224c72"/><path d="M689.07 273.84l4.64 14.27h-9.26z" stroke="#224c72" stroke-width="2" fill="#224c72"/><path d="M642.5 460H854a6 6 0 0 0 6-6V216a6 6 0 0 1 6-6h74" stroke="#224c72" stroke-width="2" fill="none"/><path d="M642.53 461h-1.03v-2h1.03z" stroke="#224c72" stroke-width=".05" fill="#224c72"/><path d="M955.26 210L941 214.63v-9.26z" stroke="#224c72" stroke-width="2" fill="#224c72"/><path d="M700 306a6 6 0 0 1 6-6h29.33a6 6 0 0 1 6 6v28a6 6 0 0 1-6 6H706a6 6 0 0 1-6-6z" stroke="#4881b3" stroke-width="3" fill-opacity="0"/><g><use xlink:href="#a" transform="matrix(1,0,0,1,708,308) translate(3.0500000000000007 15.6)"/></g><defs><path fill="#1d262b" d="M24-231v-30h32v30H24zM-9 49c24 4 33-6 33-30v-209h32V24c2 40-23 58-65 49V49" id="l"/><path fill="#1d262b" d="M141-36C126-15 110 5 73 4 37 3 15-17 15-53c-1-64 63-63 125-63 3-35-9-54-41-54-24 1-41 7-42 31l-33-3c5-37 33-52 76-52 45 0 72 20 72 64v82c-1 20 7 32 28 27v20c-31 9-61-2-59-35zM48-53c0 20 12 33 32 33 41-3 63-29 60-74-43 2-92-5-92 41" id="m"/><path fill="#1d262b" d="M114-163C36-179 61-72 57 0H25l-1-190h30c1 12-1 29 2 39 6-27 23-49 58-41v29" id="n"/><g id="a"><use transform="matrix(0.05,0,0,0.05,0,0)" xlink:href="#l"/><use transform="matrix(0.05,0,0,0.05,3.95,0)" xlink:href="#m"/><use transform="matrix(0.05,0,0,0.05,13.949999999999998,0)" xlink:href="#n"/></g><path fill="#1d262b" d="M68-38c1 34 0 65-14 84H32c9-13 17-26 17-46H33v-38h35" id="o"/><g id="b"><use transform="matrix(0.05,0,0,0.05,0,0)" xlink:href="#l"/><use transform="matrix(0.05,0,0,0.05,3.95,0)" xlink:href="#m"/><use transform="matrix(0.05,0,0,0.05,13.949999999999998,0)" xlink:href="#n"/><use transform="matrix(0.05,0,0,0.05,18.9,0)" xlink:href="#o"/></g><path fill="#1d262b" d="M24-231v-30h32v30H24zM24 0v-190h32V0H24" id="p"/><path fill="#1d262b" d="M210-169c-67 3-38 105-44 169h-31v-121c0-29-5-50-35-48C34-165 62-65 56 0H25l-1-190h30c1 10-1 24 2 32 10-44 99-50 107 0 11-21 27-35 58-36 85-2 47 119 55 194h-31v-121c0-29-5-49-35-48" id="q"/><path fill="#1d262b" d="M177-190C167-65 218 103 67 71c-23-6-38-20-44-43l32-5c15 47 100 32 89-28v-30C133-14 115 1 83 1 29 1 15-40 15-95c0-56 16-97 71-98 29-1 48 16 59 35 1-10 0-23 2-32h30zM94-22c36 0 50-32 50-73 0-42-14-75-50-75-39 0-46 34-46 75s6 73 46 73" id="r"/><path fill="#1d262b" d="M100-194c63 0 86 42 84 106H49c0 40 14 67 53 68 26 1 43-12 49-29l28 8c-11 28-37 45-77 45C44 4 14-33 15-96c1-61 26-98 85-98zm52 81c6-60-76-77-97-28-3 7-6 17-6 28h103" id="s"/><g id="c"><use transform="matrix(0.05,0,0,0.05,0,0)" xlink:href="#p"/><use transform="matrix(0.05,0,0,0.05,3.95,0)" xlink:href="#q"/><use transform="matrix(0.05,0,0,0.05,18.900000000000002,0)" xlink:href="#m"/><use transform="matrix(0.05,0,0,0.05,28.900000000000002,0)" xlink:href="#r"/><use transform="matrix(0.05,0,0,0.05,38.900000000000006,0)" xlink:href="#s"/></g><path fill="#1d262b" d="M117-194c89-4 53 116 60 194h-32v-121c0-31-8-49-39-48C34-167 62-67 57 0H25l-1-190h30c1 10-1 24 2 32 11-22 29-35 61-36" id="t"/><path fill="#1d262b" d="M85-194c31 0 48 13 60 33l-1-100h32l1 261h-30c-2-10 0-23-3-31C134-8 116 4 85 4 32 4 16-35 15-94c0-66 23-100 70-100zm9 24c-40 0-46 34-46 75 0 40 6 74 45 74 42 0 51-32 51-76 0-42-9-74-50-73" id="u"/><g id="d"><use transform="matrix(0.05,0,0,0.05,0,0)" xlink:href="#m"/><use transform="matrix(0.05,0,0,0.05,10,0)" xlink:href="#t"/><use transform="matrix(0.05,0,0,0.05,20,0)" xlink:href="#u"/></g><path fill="#1d262b" d="M59-47c-2 24 18 29 38 22v24C64 9 27 4 27-40v-127H5v-23h24l9-43h21v43h35v23H59v120" id="v"/><path fill="#1d262b" d="M96-169c-40 0-48 33-48 73s9 75 48 75c24 0 41-14 43-38l32 2c-6 37-31 61-74 61-59 0-76-41-82-99-10-93 101-131 147-64 4 7 5 14 7 22l-32 3c-4-21-16-35-41-35" id="w"/><g id="e"><use transform="matrix(0.05,0,0,0.05,0,0)" xlink:href="#s"/><use transform="matrix(0.05,0,0,0.05,10,0)" xlink:href="#v"/><use transform="matrix(0.05,0,0,0.05,15,0)" xlink:href="#w"/></g><path fill="#1d262b" d="M30 0v-248h187v28H63v79h144v27H63v87h162V0H30" id="x"/><path fill="#1d262b" d="M108 0H70L1-190h34L89-25l56-165h34" id="y"/><path fill="#1d262b" d="M100-194c62-1 85 37 85 99 1 63-27 99-86 99S16-35 15-95c0-66 28-99 85-99zM99-20c44 1 53-31 53-75 0-43-8-75-51-75s-53 32-53 75 10 74 51 75" id="z"/><g id="f"><use transform="matrix(0.05,0,0,0.05,0,0)" xlink:href="#x"/><use transform="matrix(0.05,0,0,0.05,12,0)" xlink:href="#t"/><use transform="matrix(0.05,0,0,0.05,22,0)" xlink:href="#y"/><use transform="matrix(0.05,0,0,0.05,31,0)" xlink:href="#p"/><use transform="matrix(0.05,0,0,0.05,34.95,0)" xlink:href="#n"/><use transform="matrix(0.05,0,0,0.05,40.900000000000006,0)" xlink:href="#z"/><use transform="matrix(0.05,0,0,0.05,50.900000000000006,0)" xlink:href="#t"/><use transform="matrix(0.05,0,0,0.05,60.900000000000006,0)" xlink:href="#q"/><use transform="matrix(0.05,0,0,0.05,75.85000000000001,0)" xlink:href="#s"/><use transform="matrix(0.05,0,0,0.05,85.85000000000001,0)" xlink:href="#t"/><use transform="matrix(0.05,0,0,0.05,95.85000000000001,0)" xlink:href="#v"/></g><path fill="#1d262b" d="M205 0l-28-72H64L36 0H1l101-248h38L239 0h-34zm-38-99l-47-123c-12 45-31 82-46 123h93" id="A"/><path fill="#1d262b" d="M101-234c-31-9-42 10-38 44h38v23H63V0H32v-167H5v-23h27c-7-52 17-82 69-68v24" id="B"/><g id="g"><use transform="matrix(0.05,0,0,0.05,0,0)" xlink:href="#A"/><use transform="matrix(0.05,0,0,0.05,12,0)" xlink:href="#n"/><use transform="matrix(0.05,0,0,0.05,17.95,0)" xlink:href="#v"/><use transform="matrix(0.05,0,0,0.05,22.95,0)" xlink:href="#p"/><use transform="matrix(0.05,0,0,0.05,26.899999999999995,0)" xlink:href="#B"/><use transform="matrix(0.05,0,0,0.05,31.899999999999995,0)" xlink:href="#m"/><use transform="matrix(0.05,0,0,0.05,41.9,0)" xlink:href="#w"/><use transform="matrix(0.05,0,0,0.05,50.9,0)" xlink:href="#v"/></g><path fill="#1d262b" d="M115-194c55 1 70 41 70 98S169 2 115 4C84 4 66-9 55-30l1 105H24l-1-265h31l2 30c10-21 28-34 59-34zm-8 174c40 0 45-34 45-75s-6-73-45-74c-42 0-51 32-51 76 0 43 10 73 51 73" id="C"/><path fill="#1d262b" d="M135-143c-3-34-86-38-87 0 15 53 115 12 119 90S17 21 10-45l28-5c4 36 97 45 98 0-10-56-113-15-118-90-4-57 82-63 122-42 12 7 21 19 24 35" id="D"/><path fill="#1d262b" d="M179-190L93 31C79 59 56 82 12 73V49c39 6 53-20 64-50L1-190h34L92-34l54-156h33" id="E"/><g id="h"><use transform="matrix(0.05,0,0,0.05,0,0)" xlink:href="#n"/><use transform="matrix(0.05,0,0,0.05,5.95,0)" xlink:href="#s"/><use transform="matrix(0.05,0,0,0.05,15.949999999999998,0)" xlink:href="#C"/><use transform="matrix(0.05,0,0,0.05,25.950000000000003,0)" xlink:href="#z"/><use transform="matrix(0.05,0,0,0.05,35.95,0)" xlink:href="#D"/><use transform="matrix(0.05,0,0,0.05,44.95,0)" xlink:href="#p"/><use transform="matrix(0.05,0,0,0.05,48.900000000000006,0)" xlink:href="#v"/><use transform="matrix(0.05,0,0,0.05,53.900000000000006,0)" xlink:href="#z"/><use transform="matrix(0.05,0,0,0.05,63.900000000000006,0)" xlink:href="#n"/><use transform="matrix(0.05,0,0,0.05,69.85000000000001,0)" xlink:href="#E"/></g><path fill="#1d262b" d="M115-194c53 0 69 39 70 98 0 66-23 100-70 100C84 3 66-7 56-30L54 0H23l1-261h32v101c10-23 28-34 59-34zm-8 174c40 0 45-34 45-75 0-40-5-75-45-74-42 0-51 32-51 76 0 43 10 73 51 73" id="F"/><path fill="#1d262b" d="M143 0L79-87 56-68V0H24v-261h32v163l83-92h37l-77 82L181 0h-38" id="G"/><path fill="#1d262b" d="M16-82v-28h88v28H16" id="H"/><g id="i"><use transform="matrix(0.05,0,0,0.05,0,0)" xlink:href="#F"/><use transform="matrix(0.05,0,0,0.05,10,0)" xlink:href="#z"/><use transform="matrix(0.05,0,0,0.05,20,0)" xlink:href="#z"/><use transform="matrix(0.05,0,0,0.05,30,0)" xlink:href="#G"/><use transform="matrix(0.05,0,0,0.05,39,0)" xlink:href="#H"/><use transform="matrix(0.05,0,0,0.05,44.95,0)" xlink:href="#D"/><use transform="matrix(0.05,0,0,0.05,53.95,0)" xlink:href="#s"/><use transform="matrix(0.05,0,0,0.05,63.95,0)" xlink:href="#n"/><use transform="matrix(0.05,0,0,0.05,69.9,0)" xlink:href="#y"/><use transform="matrix(0.05,0,0,0.05,78.9,0)" xlink:href="#p"/><use transform="matrix(0.05,0,0,0.05,82.85000000000001,0)" xlink:href="#w"/><use transform="matrix(0.05,0,0,0.05,91.85000000000001,0)" xlink:href="#s"/><use transform="matrix(0.05,0,0,0.05,101.85000000000001,0)" xlink:href="#H"/><use transform="matrix(0.05,0,0,0.05,107.80000000000001,0)" xlink:href="#m"/><use transform="matrix(0.05,0,0,0.05,117.80000000000001,0)" xlink:href="#C"/><use transform="matrix(0.05,0,0,0.05,127.80000000000001,0)" xlink:href="#p"/></g><path fill="#1d262b" d="M24 0v-261h32V0H24" id="I"/><g id="j"><use transform="matrix(0.05,0,0,0.05,0,0)" xlink:href="#F"/><use transform="matrix(0.05,0,0,0.05,10,0)" xlink:href="#z"/><use transform="matrix(0.05,0,0,0.05,20,0)" xlink:href="#z"/><use transform="matrix(0.05,0,0,0.05,30,0)" xlink:href="#G"/><use transform="matrix(0.05,0,0,0.05,39,0)" xlink:href="#H"/><use transform="matrix(0.05,0,0,0.05,44.95,0)" xlink:href="#D"/><use transform="matrix(0.05,0,0,0.05,53.95,0)" xlink:href="#s"/><use transform="matrix(0.05,0,0,0.05,63.95,0)" xlink:href="#n"/><use transform="matrix(0.05,0,0,0.05,69.9,0)" xlink:href="#y"/><use transform="matrix(0.05,0,0,0.05,78.9,0)" xlink:href="#p"/><use transform="matrix(0.05,0,0,0.05,82.85000000000001,0)" xlink:href="#w"/><use transform="matrix(0.05,0,0,0.05,91.85000000000001,0)" xlink:href="#s"/><use transform="matrix(0.05,0,0,0.05,101.85000000000001,0)" xlink:href="#H"/><use transform="matrix(0.05,0,0,0.05,107.80000000000001,0)" xlink:href="#w"/><use transform="matrix(0.05,0,0,0.05,116.80000000000001,0)" xlink:href="#I"/><use transform="matrix(0.05,0,0,0.05,120.75,0)" xlink:href="#p"/><use transform="matrix(0.05,0,0,0.05,124.7,0)" xlink:href="#s"/><use transform="matrix(0.05,0,0,0.05,134.70000000000002,0)" xlink:href="#t"/><use transform="matrix(0.05,0,0,0.05,144.70000000000002,0)" xlink:href="#v"/></g><g id="k"><use transform="matrix(0.05,0,0,0.05,0,0)" xlink:href="#F"/><use transform="matrix(0.05,0,0,0.05,10,0)" xlink:href="#z"/><use transform="matrix(0.05,0,0,0.05,20,0)" xlink:href="#z"/><use transform="matrix(0.05,0,0,0.05,30,0)" xlink:href="#G"/><use transform="matrix(0.05,0,0,0.05,39,0)" xlink:href="#H"/><use transform="matrix(0.05,0,0,0.05,44.95,0)" xlink:href="#D"/><use transform="matrix(0.05,0,0,0.05,53.95,0)" xlink:href="#s"/><use transform="matrix(0.05,0,0,0.05,63.95,0)" xlink:href="#n"/><use transform="matrix(0.05,0,0,0.05,69.9,0)" xlink:href="#y"/><use transform="matrix(0.05,0,0,0.05,78.9,0)" xlink:href="#p"/><use transform="matrix(0.05,0,0,0.05,82.85000000000001,0)" xlink:href="#w"/><use transform="matrix(0.05,0,0,0.05,91.85000000000001,0)" xlink:href="#s"/></g></defs></g></svg>